  0
SECTION
  2
HEADER
  9
$ACADVER
  1
AC1014
  9
$HANDSEED
  5
FFFF
  9
$MEASUREMENT
 70
     1
  0
ENDSEC
  0
SECTION
  2
TABLES
  0
TABLE
  2
VPORT
  5
8
330
0
100
AcDbSymbolTable
 70
     4
  0
VPORT
  5
2E
330
8
100
AcDbSymbolTableRecord
100
AcDbViewportTableRecord
  2
*ACTIVE
 70
     0
 10
0.0
 20
0.0
 11
1.0
 21
1.0
 12
210.0
 22
148.5
 13
0.0
 23
0.0
 14
10.0
 24
10.0
 15
10.0
 25
10.0
 16
0.0
 26
0.0
 36
1.0
 17
0.0
 27
0.0
 37
0.0
 40
341.0
 41
1.24
 42
50.0
 43
0.0
 44
0.0
 50
0.0
 51
0.0
 71
     0
 72
   100
 73
     1
 74
     3
 75
     0
 76
     0
 77
     0
 78
     0
  0
ENDTAB
  0
TABLE
  2
LTYPE
  5
5
330
0
100
AcDbSymbolTable
 70
     1
  0
LTYPE
  5
14
330
5
100
AcDbSymbolTableRecord
100
AcDbLinetypeTableRecord
  2
BYBLOCK
 70
     0
  3

 72
    65
 73
     0
 40
0.0
  0
LTYPE
  5
15
330
5
100
AcDbSymbolTableRecord
100
AcDbLinetypeTableRecord
  2
BYLAYER
 70
     0
  3

 72
    65
 73
     0
 40
0.0
  0
LTYPE
  5
16
330
5
100
AcDbSymbolTableRecord
100
AcDbLinetypeTableRecord
  2
CONTINUOUS
 70
     0
  3
Solid line
 72
    65
 73
     0
 40
0.0
  0
ENDTAB
  0
TABLE
  2
LAYER
  5
2
100
AcDbSymbolTable
 70
2
  0
LAYER
  5
50
100
AcDbSymbolTableRecord
100
AcDbLayerTableRecord
  2
0
 70
0
  6
CONTINUOUS
  0
LAYER
  5
51
100
AcDbSymbolTableRecord
100
AcDbLayerTableRecord
  2
kx-165a_panel_cutouts
 70
0
  6
CONTINUOUS
  0
ENDTAB
  0
TABLE
  2
STYLE
  5
3
330
0
100
AcDbSymbolTable
 70
     1
  0
STYLE
  5
11
330
3
100
AcDbSymbolTableRecord
100
AcDbTextStyleTableRecord
  2
STANDARD
 70
     0
 40
0.0
 41
1.0
 50
0.0
 71
     0
 42
2.5
  3
txt
  4

  0
ENDTAB
  0
TABLE
  2
VIEW
  5
6
330
0
100
AcDbSymbolTable
 70
     0
  0
ENDTAB
  0
TABLE
  2
UCS
  5
7
330
0
100
AcDbSymbolTable
 70
     0
  0
ENDTAB
  0
TABLE
  2
APPID
  5
9
330
0
100
AcDbSymbolTable
 70
     2
  0
APPID
  5
12
330
9
100
AcDbSymbolTableRecord
100
AcDbRegAppTableRecord
  2
ACAD
 70
     0
  0
ENDTAB
  0
TABLE
  2
DIMSTYLE
  5
A
330
0
100
AcDbSymbolTable
 70
     1
  0
DIMSTYLE
105
27
330
A
100
AcDbSymbolTableRecord
100
AcDbDimStyleTableRecord
  2
ISO-25
 70
     0
  3

  4

  5

  6

  7

 40
1.0
 41
2.5
 42
0.625
 43
3.75
 44
1.25
 45
0.0
 46
0.0
 47
0.0
 48
0.0
140
2.5
141
2.5
142
0.0
143
0.03937007874016
144
1.0
145
0.0
146
1.0
147
0.625
 71
     0
 72
     0
 73
     0
 74
     0
 75
     0
 76
     0
 77
     1
 78
     8
170
     0
171
     3
172
     1
173
     0
174
     0
175
     0
176
     0
177
     0
178
     0
270
     2
271
     2
272
     2
273
     2
274
     3
340
11
275
     0
280
     0
281
     0
282
     0
283
     0
284
     8
285
     0
286
     0
287
     3
288
     0
  0
ENDTAB
  0
TABLE
  2
BLOCK_RECORD
  5
1
330
0
100
AcDbSymbolTable
 70
     1
  0
BLOCK_RECORD
  5
1F
330
1
100
AcDbSymbolTableRecord
100
AcDbBlockTableRecord
  2
*MODEL_SPACE
  0
BLOCK_RECORD
  5
1B
330
1
100
AcDbSymbolTableRecord
100
AcDbBlockTableRecord
  2
*PAPER_SPACE
  0
ENDTAB
  0
ENDSEC
  0
SECTION
  2
BLOCKS
  0
BLOCK
  5
20
330
1F
100
AcDbEntity
  8
0
100
AcDbBlockBegin
  2
*MODEL_SPACE
 70
     0
 10
0.0
 20
0.0
 30
0.0
  3
*MODEL_SPACE
  1

  0
ENDBLK
  5
21
330
1F
100
AcDbEntity
  8
0
100
AcDbBlockEnd
  0
BLOCK
  5
1C
330
1B
100
AcDbEntity
 67
     1
  8
0
100
AcDbBlockBegin
  2
*PAPER_SPACE
  1

  0
ENDBLK
  5
1D
330
1B
100
AcDbEntity
 67
     1
  8
0
100
AcDbBlockEnd
  0
ENDSEC
  0
SECTION
  2
ENTITIES
  0
LWPOLYLINE
  5
100
100
AcDbEntity
  8
kx-165a_panel_cutouts
 62
5
100
AcDbPolyline
 90
5
 70
0
 10
1.187364
 20
7.404711
 30
0.0
 10
7.423747
 20
7.404711
 30
0.0
 10
7.423747
 20
5.359178
 30
0.0
 10
1.187364
 20
5.359178
 30
0.0
 10
1.187364
 20
7.404711
 30
0.0
  0
LWPOLYLINE
  5
101
100
AcDbEntity
  8
kx-165a_panel_cutouts
 62
5
100
AcDbPolyline
 90
5
 70
0
 10
1.335478
 20
7.191115
 30
0.0
 10
7.275633
 20
7.191115
 30
0.0
 10
7.275633
 20
6.450545
 30
0.0
 10
1.335478
 20
6.450545
 30
0.0
 10
1.335478
 20
7.191115
 30
0.0
  0
LWPOLYLINE
  5
102
100
AcDbEntity
  8
kx-165a_panel_cutouts
 62
5
100
AcDbPolyline
 90
5
 70
0
 10
2.341095
 20
6.138726
 30
0.0
 10
2.777642
 20
6.138726
 30
0.0
 10
2.777642
 20
5.889270
 30
0.0
 10
2.341095
 20
5.889270
 30
0.0
 10
2.341095
 20
6.138726
 30
0.0
  0
SPLINE
  5
103
100
AcDbEntity
  8
kx-165a_panel_cutouts
 62
5
100
AcDbSpline
 70
8
 71
3
 72
8
 73
4
 74
0
 40
0
 40
0
 40
0
 40
0
 40
1
 40
1
 40
1
 40
1
 10
1.686274
 20
5.826906
 30
0.0
 10
1.686274
 20
5.758021
 30
0.0
 10
1.742117
 20
5.702179
 30
0.0
 10
1.811002
 20
5.702179
 30
0.0
  0
SPLINE
  5
104
100
AcDbEntity
  8
kx-165a_panel_cutouts
 62
5
100
AcDbSpline
 70
8
 71
3
 72
8
 73
4
 74
0
 40
0
 40
0
 40
0
 40
0
 40
1
 40
1
 40
1
 40
1
 10
1.811002
 20
5.702179
 30
0.0
 10
1.879887
 20
5.702179
 30
0.0
 10
1.935730
 20
5.758021
 30
0.0
 10
1.935730
 20
5.826906
 30
0.0
  0
SPLINE
  5
105
100
AcDbEntity
  8
kx-165a_panel_cutouts
 62
5
100
AcDbSpline
 70
8
 71
3
 72
8
 73
4
 74
0
 40
0
 40
0
 40
0
 40
0
 40
1
 40
1
 40
1
 40
1
 10
1.935730
 20
5.826906
 30
0.0
 10
1.935730
 20
5.895792
 30
0.0
 10
1.879887
 20
5.951634
 30
0.0
 10
1.811002
 20
5.951634
 30
0.0
  0
SPLINE
  5
106
100
AcDbEntity
  8
kx-165a_panel_cutouts
 62
5
100
AcDbSpline
 70
8
 71
3
 72
8
 73
4
 74
0
 40
0
 40
0
 40
0
 40
0
 40
1
 40
1
 40
1
 40
1
 10
1.811002
 20
5.951634
 30
0.0
 10
1.742117
 20
5.951634
 30
0.0
 10
1.686274
 20
5.895792
 30
0.0
 10
1.686274
 20
5.826906
 30
0.0
  0
SPLINE
  5
107
100
AcDbEntity
  8
kx-165a_panel_cutouts
 62
5
100
AcDbSpline
 70
8
 71
3
 72
8
 73
4
 74
0
 40
0
 40
0
 40
0
 40
0
 40
1
 40
1
 40
1
 40
1
 10
3.419692
 20
5.920452
 30
0.0
 10
3.419692
 20
5.844514
 30
0.0
 10
3.481252
 20
5.782955
 30
0.0
 10
3.557190
 20
5.782955
 30
0.0
  0
SPLINE
  5
108
100
AcDbEntity
  8
kx-165a_panel_cutouts
 62
5
100
AcDbSpline
 70
8
 71
3
 72
8
 73
4
 74
0
 40
0
 40
0
 40
0
 40
0
 40
1
 40
1
 40
1
 40
1
 10
3.557190
 20
5.782955
 30
0.0
 10
3.633127
 20
5.782955
 30
0.0
 10
3.694687
 20
5.844514
 30
0.0
 10
3.694687
 20
5.920452
 30
0.0
  0
SPLINE
  5
109
100
AcDbEntity
  8
kx-165a_panel_cutouts
 62
5
100
AcDbSpline
 70
8
 71
3
 72
8
 73
4
 74
0
 40
0
 40
0
 40
0
 40
0
 40
1
 40
1
 40
1
 40
1
 10
3.694687
 20
5.920452
 30
0.0
 10
3.694687
 20
5.996390
 30
0.0
 10
3.633127
 20
6.057949
 30
0.0
 10
3.557190
 20
6.057949
 30
0.0
  0
SPLINE
  5
10a
100
AcDbEntity
  8
kx-165a_panel_cutouts
 62
5
100
AcDbSpline
 70
8
 71
3
 72
8
 73
4
 74
0
 40
0
 40
0
 40
0
 40
0
 40
1
 40
1
 40
1
 40
1
 10
3.557190
 20
6.057949
 30
0.0
 10
3.481252
 20
6.057949
 30
0.0
 10
3.419692
 20
5.996390
 30
0.0
 10
3.419692
 20
5.920452
 30
0.0
  0
SPLINE
  5
10b
100
AcDbEntity
  8
kx-165a_panel_cutouts
 62
5
100
AcDbSpline
 70
8
 71
3
 72
8
 73
4
 74
0
 40
0
 40
0
 40
0
 40
0
 40
1
 40
1
 40
1
 40
1
 10
6.537882
 20
5.920452
 30
0.0
 10
6.537882
 20
5.844513
 30
0.0
 10
6.599442
 20
5.782952
 30
0.0
 10
6.675381
 20
5.782952
 30
0.0
  0
SPLINE
  5
10c
100
AcDbEntity
  8
kx-165a_panel_cutouts
 62
5
100
AcDbSpline
 70
8
 71
3
 72
8
 73
4
 74
0
 40
0
 40
0
 40
0
 40
0
 40
1
 40
1
 40
1
 40
1
 10
6.675381
 20
5.782952
 30
0.0
 10
6.751320
 20
5.782952
 30
0.0
 10
6.812881
 20
5.844513
 30
0.0
 10
6.812881
 20
5.920452
 30
0.0
  0
SPLINE
  5
10d
100
AcDbEntity
  8
kx-165a_panel_cutouts
 62
5
100
AcDbSpline
 70
8
 71
3
 72
8
 73
4
 74
0
 40
0
 40
0
 40
0
 40
0
 40
1
 40
1
 40
1
 40
1
 10
6.812881
 20
5.920452
 30
0.0
 10
6.812881
 20
5.996391
 30
0.0
 10
6.751320
 20
6.057952
 30
0.0
 10
6.675381
 20
6.057952
 30
0.0
  0
SPLINE
  5
10e
100
AcDbEntity
  8
kx-165a_panel_cutouts
 62
5
100
AcDbSpline
 70
8
 71
3
 72
8
 73
4
 74
0
 40
0
 40
0
 40
0
 40
0
 40
1
 40
1
 40
1
 40
1
 10
6.675381
 20
6.057952
 30
0.0
 10
6.599442
 20
6.057952
 30
0.0
 10
6.537882
 20
5.996391
 30
0.0
 10
6.537882
 20
5.920452
 30
0.0
  0
SPLINE
  5
10f
100
AcDbEntity
  8
kx-165a_panel_cutouts
 62
5
100
AcDbSpline
 70
8
 71
3
 72
8
 73
4
 74
0
 40
0
 40
0
 40
0
 40
0
 40
1
 40
1
 40
1
 40
1
 10
4.804466
 20
5.826906
 30
0.0
 10
4.804466
 20
5.758021
 30
0.0
 10
4.860309
 20
5.702179
 30
0.0
 10
4.929194
 20
5.702179
 30
0.0
  0
SPLINE
  5
110
100
AcDbEntity
  8
kx-165a_panel_cutouts
 62
5
100
AcDbSpline
 70
8
 71
3
 72
8
 73
4
 74
0
 40
0
 40
0
 40
0
 40
0
 40
1
 40
1
 40
1
 40
1
 10
4.929194
 20
5.702179
 30
0.0
 10
4.998079
 20
5.702179
 30
0.0
 10
5.053922
 20
5.758021
 30
0.0
 10
5.053922
 20
5.826906
 30
0.0
  0
SPLINE
  5
111
100
AcDbEntity
  8
kx-165a_panel_cutouts
 62
5
100
AcDbSpline
 70
8
 71
3
 72
8
 73
4
 74
0
 40
0
 40
0
 40
0
 40
0
 40
1
 40
1
 40
1
 40
1
 10
5.053922
 20
5.826906
 30
0.0
 10
5.053922
 20
5.895792
 30
0.0
 10
4.998079
 20
5.951634
 30
0.0
 10
4.929194
 20
5.951634
 30
0.0
  0
SPLINE
  5
112
100
AcDbEntity
  8
kx-165a_panel_cutouts
 62
5
100
AcDbSpline
 70
8
 71
3
 72
8
 73
4
 74
0
 40
0
 40
0
 40
0
 40
0
 40
1
 40
1
 40
1
 40
1
 10
4.929194
 20
5.951634
 30
0.0
 10
4.860309
 20
5.951634
 30
0.0
 10
4.804466
 20
5.895792
 30
0.0
 10
4.804466
 20
5.826906
 30
0.0
  0
LWPOLYLINE
  5
113
100
AcDbEntity
  8
kx-165a_panel_cutouts
 62
5
100
AcDbPolyline
 90
5
 70
0
 10
5.459287
 20
6.138726
 30
0.0
 10
5.895833
 20
6.138726
 30
0.0
 10
5.895833
 20
5.889270
 30
0.0
 10
5.459287
 20
5.889270
 30
0.0
 10
5.459287
 20
6.138726
 30
0.0
  0
LWPOLYLINE
  5
114
100
AcDbEntity
  8
kx-165a_panel_cutouts
 62
7
100
AcDbPolyline
 90
2
 70
0
 10
1.811002
 20
5.296814
 30
0.0
 10
1.811002
 20
7.479548
 30
0.0
  0
LWPOLYLINE
  5
115
100
AcDbEntity
  8
kx-165a_panel_cutouts
 62
7
100
AcDbPolyline
 90
2
 70
0
 10
1.125000
 20
5.826906
 30
0.0
 10
7.486111
 20
5.826906
 30
0.0
  0
LWPOLYLINE
  5
116
100
AcDbEntity
  8
kx-165a_panel_cutouts
 62
7
100
AcDbPolyline
 90
2
 70
0
 10
3.557190
 20
7.479548
 30
0.0
 10
3.557190
 20
5.296814
 30
0.0
  0
LWPOLYLINE
  5
117
100
AcDbEntity
  8
kx-165a_panel_cutouts
 62
7
100
AcDbPolyline
 90
2
 70
0
 10
1.125000
 20
5.920452
 30
0.0
 10
7.486111
 20
5.920452
 30
0.0
  0
LWPOLYLINE
  5
118
100
AcDbEntity
  8
kx-165a_panel_cutouts
 62
7
100
AcDbPolyline
 90
2
 70
0
 10
4.305556
 20
7.479548
 30
0.0
 10
4.305556
 20
5.296814
 30
0.0
  0
LWPOLYLINE
  5
119
100
AcDbEntity
  8
kx-165a_panel_cutouts
 62
7
100
AcDbPolyline
 90
2
 70
0
 10
1.187364
 20
7.479548
 30
0.0
 10
1.187364
 20
5.296814
 30
0.0
  0
LWPOLYLINE
  5
11a
100
AcDbEntity
  8
kx-165a_panel_cutouts
 62
7
100
AcDbPolyline
 90
2
 70
0
 10
1.125000
 20
5.359178
 30
0.0
 10
7.486111
 20
5.359178
 30
0.0
  0
LWPOLYLINE
  5
11b
100
AcDbEntity
  8
kx-165a_panel_cutouts
 62
7
100
AcDbPolyline
 90
2
 70
0
 10
4.929194
 20
7.479548
 30
0.0
 10
4.929194
 20
5.296814
 30
0.0
  0
LWPOLYLINE
  5
11c
100
AcDbEntity
  8
kx-165a_panel_cutouts
 62
7
100
AcDbPolyline
 90
2
 70
0
 10
6.675381
 20
7.479548
 30
0.0
 10
6.675381
 20
5.296814
 30
0.0
  0
LWPOLYLINE
  5
11d
100
AcDbEntity
  8
kx-165a_panel_cutouts
 62
7
100
AcDbPolyline
 90
2
 70
0
 10
2.341095
 20
5.296814
 30
0.0
 10
2.341095
 20
7.479548
 30
0.0
  0
LWPOLYLINE
  5
11e
100
AcDbEntity
  8
kx-165a_panel_cutouts
 62
7
100
AcDbPolyline
 90
2
 70
0
 10
1.125000
 20
5.889270
 30
0.0
 10
7.486111
 20
5.889270
 30
0.0
  0
SPLINE
  5
11f
100
AcDbEntity
  8
kx-165a_panel_cutouts
 62
5
100
AcDbSpline
 70
8
 71
3
 72
8
 73
4
 74
0
 40
0
 40
0
 40
0
 40
0
 40
1
 40
1
 40
1
 40
1
 10
2.497004
 20
5.585247
 30
0.0
 10
2.497004
 20
5.550804
 30
0.0
 10
2.524926
 20
5.522883
 30
0.0
 10
2.559368
 20
5.522883
 30
0.0
  0
SPLINE
  5
120
100
AcDbEntity
  8
kx-165a_panel_cutouts
 62
5
100
AcDbSpline
 70
8
 71
3
 72
8
 73
4
 74
0
 40
0
 40
0
 40
0
 40
0
 40
1
 40
1
 40
1
 40
1
 10
2.559368
 20
5.522883
 30
0.0
 10
2.593811
 20
5.522883
 30
0.0
 10
2.621732
 20
5.550804
 30
0.0
 10
2.621732
 20
5.585247
 30
0.0
  0
SPLINE
  5
121
100
AcDbEntity
  8
kx-165a_panel_cutouts
 62
5
100
AcDbSpline
 70
8
 71
3
 72
8
 73
4
 74
0
 40
0
 40
0
 40
0
 40
0
 40
1
 40
1
 40
1
 40
1
 10
2.621732
 20
5.585247
 30
0.0
 10
2.621732
 20
5.619689
 30
0.0
 10
2.593811
 20
5.647610
 30
0.0
 10
2.559368
 20
5.647610
 30
0.0
  0
SPLINE
  5
122
100
AcDbEntity
  8
kx-165a_panel_cutouts
 62
5
100
AcDbSpline
 70
8
 71
3
 72
8
 73
4
 74
0
 40
0
 40
0
 40
0
 40
0
 40
1
 40
1
 40
1
 40
1
 10
2.559368
 20
5.647610
 30
0.0
 10
2.524926
 20
5.647610
 30
0.0
 10
2.497004
 20
5.619689
 30
0.0
 10
2.497004
 20
5.585247
 30
0.0
  0
LWPOLYLINE
  5
123
100
AcDbEntity
  8
kx-165a_panel_cutouts
 62
7
100
AcDbPolyline
 90
2
 70
0
 10
5.459287
 20
7.479548
 30
0.0
 10
5.459287
 20
5.296814
 30
0.0
  0
LWPOLYLINE
  5
124
100
AcDbEntity
  8
kx-165a_panel_cutouts
 62
7
100
AcDbPolyline
 90
2
 70
0
 10
2.559368
 20
7.463957
 30
0.0
 10
2.559368
 20
5.304609
 30
0.0
  0
LWPOLYLINE
  5
125
100
AcDbEntity
  8
kx-165a_panel_cutouts
 62
7
100
AcDbPolyline
 90
2
 70
0
 10
1.140591
 20
5.585247
 30
0.0
 10
7.478316
 20
5.585247
 30
0.0
  0
SPLINE
  5
126
100
AcDbEntity
  8
kx-165a_panel_cutouts
 62
5
100
AcDbSpline
 70
8
 71
3
 72
8
 73
4
 74
0
 40
0
 40
0
 40
0
 40
0
 40
1
 40
1
 40
1
 40
1
 10
5.615196
 20
5.585247
 30
0.0
 10
5.615196
 20
5.550804
 30
0.0
 10
5.643117
 20
5.522883
 30
0.0
 10
5.677560
 20
5.522883
 30
0.0
  0
SPLINE
  5
127
100
AcDbEntity
  8
kx-165a_panel_cutouts
 62
5
100
AcDbSpline
 70
8
 71
3
 72
8
 73
4
 74
0
 40
0
 40
0
 40
0
 40
0
 40
1
 40
1
 40
1
 40
1
 10
5.677560
 20
5.522883
 30
0.0
 10
5.712003
 20
5.522883
 30
0.0
 10
5.739924
 20
5.550804
 30
0.0
 10
5.739924
 20
5.585247
 30
0.0
  0
SPLINE
  5
128
100
AcDbEntity
  8
kx-165a_panel_cutouts
 62
5
100
AcDbSpline
 70
8
 71
3
 72
8
 73
4
 74
0
 40
0
 40
0
 40
0
 40
0
 40
1
 40
1
 40
1
 40
1
 10
5.739924
 20
5.585247
 30
0.0
 10
5.739924
 20
5.619689
 30
0.0
 10
5.712003
 20
5.647610
 30
0.0
 10
5.677560
 20
5.647610
 30
0.0
  0
SPLINE
  5
129
100
AcDbEntity
  8
kx-165a_panel_cutouts
 62
5
100
AcDbSpline
 70
8
 71
3
 72
8
 73
4
 74
0
 40
0
 40
0
 40
0
 40
0
 40
1
 40
1
 40
1
 40
1
 10
5.677560
 20
5.647610
 30
0.0
 10
5.643117
 20
5.647610
 30
0.0
 10
5.615196
 20
5.619689
 30
0.0
 10
5.615196
 20
5.585247
 30
0.0
  0
SPLINE
  5
12a
100
AcDbEntity
  8
kx-165a_panel_cutouts
 62
5
100
AcDbSpline
 70
8
 71
3
 72
8
 73
4
 74
0
 40
0
 40
0
 40
0
 40
0
 40
1
 40
1
 40
1
 40
1
 10
4.243192
 20
5.655406
 30
0.0
 10
4.243192
 20
5.620963
 30
0.0
 10
4.271113
 20
5.593042
 30
0.0
 10
4.305556
 20
5.593042
 30
0.0
  0
SPLINE
  5
12b
100
AcDbEntity
  8
kx-165a_panel_cutouts
 62
5
100
AcDbSpline
 70
8
 71
3
 72
8
 73
4
 74
0
 40
0
 40
0
 40
0
 40
0
 40
1
 40
1
 40
1
 40
1
 10
4.305556
 20
5.593042
 30
0.0
 10
4.339998
 20
5.593042
 30
0.0
 10
4.367919
 20
5.620963
 30
0.0
 10
4.367919
 20
5.655406
 30
0.0
  0
SPLINE
  5
12c
100
AcDbEntity
  8
kx-165a_panel_cutouts
 62
5
100
AcDbSpline
 70
8
 71
3
 72
8
 73
4
 74
0
 40
0
 40
0
 40
0
 40
0
 40
1
 40
1
 40
1
 40
1
 10
4.367919
 20
5.655406
 30
0.0
 10
4.367919
 20
5.689848
 30
0.0
 10
4.339998
 20
5.717770
 30
0.0
 10
4.305556
 20
5.717770
 30
0.0
  0
SPLINE
  5
12d
100
AcDbEntity
  8
kx-165a_panel_cutouts
 62
5
100
AcDbSpline
 70
8
 71
3
 72
8
 73
4
 74
0
 40
0
 40
0
 40
0
 40
0
 40
1
 40
1
 40
1
 40
1
 10
4.305556
 20
5.717770
 30
0.0
 10
4.271113
 20
5.717770
 30
0.0
 10
4.243192
 20
5.689848
 30
0.0
 10
4.243192
 20
5.655406
 30
0.0
  0
LWPOLYLINE
  5
12e
100
AcDbEntity
  8
kx-165a_panel_cutouts
 62
7
100
AcDbPolyline
 90
2
 70
0
 10
5.677560
 20
7.456162
 30
0.0
 10
5.677560
 20
5.304609
 30
0.0
  0
LWPOLYLINE
  5
12f
100
AcDbEntity
  8
kx-165a_panel_cutouts
 62
7
100
AcDbPolyline
 90
2
 70
0
 10
4.040509
 20
5.655406
 30
0.0
 10
4.547215
 20
5.655406
 30
0.0
  0
ENDSEC
  0
SECTION
  2
OBJECTS
  0
DICTIONARY
  5
C
330
0
100
AcDbDictionary
  3
ACAD_GROUP
350
D
  3
ACAD_MLINESTYLE
350
17
  0
DICTIONARY
  5
D
330
C
100
AcDbDictionary
  0
DICTIONARY
  5
1A
330
C
100
AcDbDictionary
  0
DICTIONARY
  5
17
330
C
100
AcDbDictionary
  3
STANDARD
350
18
  0
DICTIONARY
  5
19
330
C
100
AcDbDictionary
  0
ENDSEC
  0
EOF
